<?xml version="1.0" encoding="iso-8859-1"?>
<!-- Generator: Adobe Illustrator 19.0.0, SVG Export Plug-In . SVG Version: 6.00 Build 0)  -->
<svg version="1.1" id="Capa_1" xmlns="http://www.w3.org/2000/svg" xmlns:xlink="http://www.w3.org/1999/xlink" x="0px" y="0px"
	 viewBox="0 0 512 512" style="enable-background:new 0 0 512 512;" xml:space="preserve">
<circle style="fill:#005C83;" cx="256" cy="256" r="256"/>
<path style="fill:#00263F;" d="M276.592,511.174C408.347,500.686,512,390.452,512,256c0-2.663-0.054-5.313-0.135-7.956
	l-76.324-76.324l-36.011,6.624L386.287,165.1l-70.44,27.805l36.462,36.462l-91.851,6.658l-64.305-64.305l-34.978,7.657
	L146.898,165.1l-70.44,27.805l52.642,52.642l-64.747,4.693l87.928,87.928l-21.002,27.693L276.592,511.174z"/>
<path style="fill:#FFDC00;" d="M380.72,365.862h-27c0-52.23-42.687-112.944-97.72-112.944s-97.72,60.714-97.72,112.944h-27
	c0-66.06,53.338-139.944,124.72-139.944S380.72,299.802,380.72,365.862z"/>
<path style="fill:#FFC000;" d="M256,225.918c-0.112,0-0.222,0.005-0.333,0.005v27c0.111,0,0.222-0.006,0.333-0.006
	c55.034,0,97.72,60.714,97.72,112.944h27C380.72,299.802,327.382,225.918,256,225.918z"/>
<rect x="125.71" y="165.1" style="fill:#FFDC00;" width="21.18" height="73.35"/>
<rect x="76.46" y="171.72" style="fill:#FF6838;" width="119.69" height="21.18"/>
<rect x="365.1" y="165.1" style="fill:#FFC000;" width="21.18" height="73.35"/>
<rect x="315.85" y="171.72" style="fill:#AE4E32;" width="119.69" height="21.18"/>
<path style="fill:#FFFFFF;" d="M447.646,217.58H64.354v32.66h64.637c14.018,0,26.483,8.917,31.01,22.184l0,0
	c4.527,13.267,16.992,22.184,31.01,22.184h129.976c14.018,0,26.483-8.917,31.01-22.184l0,0c4.527-13.267,16.992-22.184,31.01-22.184
	h64.637v-32.66H447.646z"/>
<path style="fill:#E0E0E0;" d="M255.667,217.58v77.028h65.321c14.018,0,26.483-8.917,31.01-22.184s16.992-22.184,31.01-22.184
	h64.637v-32.66H255.667z"/>
<g>
</g>
<g>
</g>
<g>
</g>
<g>
</g>
<g>
</g>
<g>
</g>
<g>
</g>
<g>
</g>
<g>
</g>
<g>
</g>
<g>
</g>
<g>
</g>
<g>
</g>
<g>
</g>
<g>
</g>
</svg>
