<?xml version="1.0" encoding="utf-8"?>
<!-- Generator: Adobe Illustrator 22.0.0, SVG Export Plug-In . SVG Version: 6.00 Build 0)  -->
<svg version="1.1" id="Capa_1" xmlns="http://www.w3.org/2000/svg" xmlns:xlink="http://www.w3.org/1999/xlink" x="0px" y="0px"
	 viewBox="0 0 512 512" style="enable-background:new 0 0 512 512;" xml:space="preserve">
<style type="text/css">
	.st0{fill:#0E6EA8;}
</style>
<g>
	<g>
		<path class="st0" d="M437,331c-27.9-27.9-61.1-48.5-97.3-61c38.8-26.7,64.3-71.4,64.3-122C404,66.4,337.6,0,256,0
			S108,66.4,108,148c0,50.5,25.5,95.3,64.3,122c-36.2,12.5-69.4,33.1-97.3,61C26.6,379.3,0,443.6,0,512h40c0-119.1,96.9-216,216-216
			s216,96.9,216,216h40C512,443.6,485.4,379.3,437,331z M256,256c-59.6,0-108-48.4-108-108S196.4,40,256,40s108,48.4,108,108
			S315.6,256,256,256z"/>
	</g>
</g>
</svg>
